<svg id="MODELSKETCH_VISIBLE" xmlns="http://www.w3.org/2000/svg" viewBox="0 0 360.71 144.71"><defs><style>.cls-1{fill:none;stroke:#000;stroke-linecap:round;stroke-linejoin:round;stroke-width:0.71px;}</style></defs><title>Opener</title><g id="CIRCLE"><path class="cls-1" d="M254.86,191.11a56.25,56.25,0,1,1,56.25,56.25,56.26,56.26,0,0,1-56.25-56.25Z" transform="translate(-22.76 -118.76)"/></g><g id="ARC"><path class="cls-1" d="M306.85,263a72,72,0,1,0,8.52-143.75,71.23,71.23,0,0,0-8.52,0" transform="translate(-22.76 -118.76)"/></g><g id="LINE"><line class="cls-1" x1="54.35" y1="18.35" x2="284.1" y2="0.48"/></g><g id="LINE-2" data-name="LINE"><line class="cls-1" x1="54.35" y1="126.35" x2="284.1" y2="144.23"/></g><g id="CIRCLE-2" data-name="CIRCLE"><path class="cls-1" d="M275.11,191.11a36,36,0,1,1,36,36,36,36,0,0,1-36-36Z" transform="translate(-22.76 -118.76)"/></g><g id="ARC-2" data-name="ARC"><path class="cls-1" d="M77.11,137.11a54,54,0,0,0,0,108" transform="translate(-22.76 -118.76)"/></g></svg>